<svg id="Layer_1" data-name="Layer 1" xmlns="http://www.w3.org/2000/svg" viewBox="0 0 98.4 98.61"><defs><style>.cls-1{fill:#fff;}</style></defs><path id="Rectangle_129" data-name="Rectangle 129" class="cls-1" d="M96.15,4.65h0a11.14,11.14,0,0,1,0,15.72L19.94,96.74a11.06,11.06,0,0,1-15.69,0h0A11.14,11.14,0,0,1,4.25,81L80.46,4.65A11.08,11.08,0,0,1,96.15,4.65Z" transform="translate(-1 -1.39)"/><path id="Rectangle_130" data-name="Rectangle 130" class="cls-1" d="M4.25,4.65h0a10.47,10.47,0,0,1,14.82,0L96.15,81.89a10.52,10.52,0,0,1,0,14.85h0a10.45,10.45,0,0,1-14.82,0L4.25,19.51A10.51,10.51,0,0,1,4.25,4.65Z" transform="translate(-1 -1.39)"/></svg>