<svg id="Layer_1" data-name="Layer 1" xmlns="http://www.w3.org/2000/svg" viewBox="0 0 93.79 93.78"><defs><style>.cls-1{fill:#fff;}</style></defs><path id="Rectangle_130" data-name="Rectangle 130" class="cls-1" d="M48.41,2.42h0a7.54,7.54,0,0,1,7.69,7.4v0l1.33,78.65A7.58,7.58,0,0,1,50,96.19h0a7.53,7.53,0,0,1-7.69-7.37v0L41,10.13A7.58,7.58,0,0,1,48.41,2.42Z" transform="translate(-2.31 -2.42)"/><path id="Rectangle_130-2" data-name="Rectangle 130" class="cls-1" d="M96.09,49.26h0a7.53,7.53,0,0,1-7.52,7.57h0l-78.67.08a7.56,7.56,0,0,1-7.58-7.55h0A7.53,7.53,0,0,1,9.8,41.79h0L88.5,41.7A7.57,7.57,0,0,1,96.09,49.26Z" transform="translate(-2.31 -2.42)"/></svg>