<svg id="Layer_1" data-name="Layer 1" xmlns="http://www.w3.org/2000/svg" xmlns:xlink="http://www.w3.org/1999/xlink" viewBox="0 0 576 512"><defs><style>.cls-1{fill:url(#linear-gradient);}</style><linearGradient id="linear-gradient" y1="256" x2="576" y2="256" gradientUnits="userSpaceOnUse"><stop offset="0" stop-color="#fff"/><stop offset="1" stop-color="#fff"/></linearGradient></defs><path class="cls-1" d="M568.48,177.45l-144,136C409.3,327.77,384,317.14,384,296V224c-144.57,1-205.57,35.11-164.77,171.36,4.48,15-12.85,26.56-25,17.32-39-29.59-74.22-86.21-74.22-143.36C120,125.4,237.6,96.84,384,96V24c0-21.17,25.32-31.77,40.48-17.45l144,136A24,24,0,0,1,568.48,177.45ZM384,379.13V448H64V128h50.92a12,12,0,0,0,8.64-3.69,195.1,195.1,0,0,1,51-37.68c11.13-5.8,7-22.63-5.55-22.63H48A48,48,0,0,0,0,112V464a48,48,0,0,0,48,48H400a48,48,0,0,0,48-48V375.19a12,12,0,0,0-16-11.3,71.73,71.73,0,0,1-34.19,3.38A12,12,0,0,0,384,379.13Z" transform="translate(0 0)"/></svg>